<mxfile host="65bd71144e">
    <diagram id="zU4_5WAk3CfICNYooZKo" name="Page-1">
        <mxGraphModel dx="2476" dy="2004" grid="1" gridSize="10" guides="1" tooltips="1" connect="1" arrows="1" fold="1" page="1" pageScale="1" pageWidth="850" pageHeight="1100" math="0" shadow="0">
            <root>
                <mxCell id="0"/>
                <mxCell id="1" parent="0"/>
                <mxCell id="2" value="" style="rounded=0;whiteSpace=wrap;html=1;" vertex="1" parent="1">
                    <mxGeometry x="-180" y="10" width="1130" height="630" as="geometry"/>
                </mxCell>
                <mxCell id="3" value="Cluster K8s | Minikube" style="label;whiteSpace=wrap;html=1;image=img/clipart/Gear_128x128.png" vertex="1" parent="1">
                    <mxGeometry x="-170" y="20" width="290" height="40" as="geometry"/>
                </mxCell>
                <mxCell id="4" value="IdP" style="label;whiteSpace=wrap;html=1;image=img/clipart/Gear_128x128.png" vertex="1" parent="1">
                    <mxGeometry x="-190" y="-220" width="730" height="180" as="geometry"/>
                </mxCell>
                <mxCell id="5" value="Ollama | Gemma3 Vision 12B" style="label;whiteSpace=wrap;html=1;image=img/clipart/Gear_128x128.png" vertex="1" parent="1">
                    <mxGeometry x="580" y="-220" width="730" height="180" as="geometry"/>
                </mxCell>
                <mxCell id="7" value="Ingress | LB" style="ellipse;whiteSpace=wrap;html=1;" vertex="1" parent="1">
                    <mxGeometry x="215" y="50" width="340" height="70" as="geometry"/>
                </mxCell>
            </root>
        </mxGraphModel>
    </diagram>
</mxfile>